<?xml version="1.0" standalone="no"?><!DOCTYPE svg PUBLIC "-//W3C//DTD SVG 1.1//EN" "http://www.w3.org/Graphics/SVG/1.1/DTD/svg11.dtd"><svg t="1667788253032" class="icon" viewBox="0 0 1024 1024" version="1.1" xmlns="http://www.w3.org/2000/svg" p-id="5469" width="32" height="32" xmlns:xlink="http://www.w3.org/1999/xlink"><path d="M512 0C230.4 0 0 230.4 0 512s230.4 512 512 512 512-230.4 512-512S793.6 0 512 0zM454.4 723.2c0 19.2-19.2 32-44.8 32-25.6 0-44.8-12.8-44.8-32L364.8 300.8c0-19.2 19.2-32 44.8-32 25.6 0 44.8 12.8 44.8 32L454.4 723.2zM665.6 723.2c0 19.2-19.2 32-44.8 32-25.6 0-44.8-12.8-44.8-32L576 300.8c0-19.2 19.2-32 44.8-32 25.6 0 44.8 12.8 44.8 32L665.6 723.2z" p-id="5470" fill="#757677"></path></svg>